<svg xmlns="http://www.w3.org/2000/svg" xmlns:xlink="http://www.w3.org/1999/xlink" width="769px" height="664px" version="1.1"><defs><style type="text/css">ul { margin-top: 0px; margin-bottom: 10px } &#xa;ol { margin-top: 0px; margin-bottom: 10px } &#xa;</style></defs><g transform="translate(0.5,0.5)"><ellipse cx="16" cy="278" rx="7.5" ry="7.5" fill="#7acff5" stroke="none" pointer-events="none"/><rect x="0.5" y="270.5" width="30" height="60" fill-opacity="0" fill="#7acff5" stroke="none" pointer-events="none"/><ellipse cx="16" cy="278" rx="7.5" ry="7.5" fill="none" stroke="#000000" pointer-events="none"/><path d="M 15.5 285.5 L 15.5 310.5" fill="none" stroke="#000000" stroke-miterlimit="10" pointer-events="none"/><path d="M 0.5 294.5 L 30.5 294.5" fill="none" stroke="#000000" stroke-miterlimit="10" pointer-events="none"/><path d="M 15.5 310.5 L 0.5 330.5" fill="none" stroke="#000000" stroke-miterlimit="10" pointer-events="none"/><path d="M 15.5 310.5 L 30.5 330.5" fill="none" stroke="#000000" stroke-miterlimit="10" pointer-events="none"/><g fill="#000000" font-family="Helvetica" text-anchor="middle" font-size="12px"><text x="15" y="349">User</text></g><rect x="259" y="0" width="200" height="293" fill="#7acff5" stroke="#000000" pointer-events="none"/><g fill="#000000" font-family="Helvetica" text-anchor="middle" font-size="12px"><text x="358.5" y="18.5">User Database</text></g><ellipse cx="352" cy="76" rx="40" ry="20" fill="#7acff5" stroke="#000000" pointer-events="none"/><g fill="#000000" font-family="Helvetica" text-anchor="middle" font-size="12px"><text x="351" y="79.5">Add User</text></g><ellipse cx="352" cy="146" rx="40" ry="20" fill="#7acff5" stroke="#000000" pointer-events="none"/><g fill="#000000" font-family="Helvetica" text-anchor="middle" font-size="12px"><text x="351" y="149">Remove User</text></g><ellipse cx="352" cy="250" rx="40" ry="21" fill="#7acff5" stroke="#000000" pointer-events="none"/><g fill="#000000" font-family="Helvetica" text-anchor="middle" font-size="12px"><text x="351" y="253">Login</text></g><path d="M 351.5 165.5 L 351.5 226.26" fill="none" stroke="#000000" stroke-miterlimit="10" stroke-dasharray="4" pointer-events="none"/><path d="M 345.5 215.38 L 351.5 227.38 L 357.5 215.38" fill="none" stroke="#000000" stroke-miterlimit="10" pointer-events="none"/><g fill="#000000" font-family="Helvetica" text-anchor="middle" font-size="11px"><text x="361" y="200.5">&lt;&lt;Include&gt;&gt;</text></g><ellipse cx="702" cy="173" rx="7.5" ry="7.5" fill="#7acff5" stroke="none" pointer-events="none"/><rect x="686.5" y="165.5" width="30" height="60" fill-opacity="0" fill="#7acff5" stroke="none" pointer-events="none"/><ellipse cx="702" cy="173" rx="7.5" ry="7.5" fill="none" stroke="#000000" pointer-events="none"/><path d="M 701.5 180.5 L 701.5 205.5" fill="none" stroke="#000000" stroke-miterlimit="10" pointer-events="none"/><path d="M 686.5 189.5 L 716.5 189.5" fill="none" stroke="#000000" stroke-miterlimit="10" pointer-events="none"/><path d="M 701.5 205.5 L 686.5 225.5" fill="none" stroke="#000000" stroke-miterlimit="10" pointer-events="none"/><path d="M 701.5 205.5 L 716.5 225.5" fill="none" stroke="#000000" stroke-miterlimit="10" pointer-events="none"/><g fill="#000000" font-family="Helvetica" text-anchor="middle" font-size="12px"><text x="701" y="244">Moderator</text></g><ellipse cx="702" cy="440" rx="7.5" ry="7.5" fill="#7acff5" stroke="none" pointer-events="none"/><rect x="686.5" y="432" width="30" height="60" fill-opacity="0" fill="#7acff5" stroke="none" pointer-events="none"/><ellipse cx="702" cy="440" rx="7.5" ry="7.5" fill="none" stroke="#000000" pointer-events="none"/><path d="M 701.5 447 L 701.5 472" fill="none" stroke="#000000" stroke-miterlimit="10" pointer-events="none"/><path d="M 686.5 456 L 716.5 456" fill="none" stroke="#000000" stroke-miterlimit="10" pointer-events="none"/><path d="M 701.5 472 L 686.5 492" fill="none" stroke="#000000" stroke-miterlimit="10" pointer-events="none"/><path d="M 701.5 472 L 716.5 492" fill="none" stroke="#000000" stroke-miterlimit="10" pointer-events="none"/><g fill="#000000" font-family="Helvetica" text-anchor="middle" font-size="12px"><text x="701" y="510.5">Administrator</text></g><rect x="233" y="323" width="252" height="338" fill="#7acff5" stroke="#000000" pointer-events="none"/><g fill="#000000" font-family="Helvetica" text-anchor="middle" font-size="12px"><text x="358.5" y="341.5">User Profile</text></g><ellipse cx="414" cy="390" rx="40" ry="20" fill="#7acff5" stroke="#000000" pointer-events="none"/><g fill="#000000" font-family="Helvetica" text-anchor="middle" font-size="12px"><text x="413" y="393">Add Comment</text></g><ellipse cx="414" cy="442" rx="56" ry="20" fill="#7acff5" stroke="#000000" pointer-events="none"/><g fill="#000000" font-family="Helvetica" text-anchor="middle" font-size="12px"><text x="413" y="445.5">Remove Comment</text></g><ellipse cx="411" cy="503" rx="53" ry="20" fill="#7acff5" stroke="#000000" pointer-events="none"/><g fill="#000000" font-family="Helvetica" text-anchor="middle" font-size="12px"><text x="410" y="506">Submit Request</text></g><ellipse cx="414" cy="553" rx="62.5" ry="20" fill="#7acff5" stroke="#000000" pointer-events="none"/><g fill="#000000" font-family="Helvetica" text-anchor="middle" font-size="12px"><text x="413" y="556.5">Approve Request</text></g><ellipse cx="414" cy="630" rx="47" ry="20" fill="#7acff5" stroke="#000000" pointer-events="none"/><g fill="#000000" font-family="Helvetica" text-anchor="middle" font-size="12px"><text x="413" y="633.5">Deny Request</text></g><ellipse cx="281" cy="543" rx="40" ry="20" fill="#7acff5" stroke="#000000" pointer-events="none"/><g fill="#000000" font-family="Helvetica" text-anchor="middle" font-size="12px"><text x="280.5" y="546">Login</text></g><path d="M 414 409.5 L 414 410.75 Q 414 412 404 412 L 261 412 Q 251 412 251 422 L 251 520.26" fill="none" stroke="#000000" stroke-miterlimit="10" stroke-dasharray="4" pointer-events="none"/><path d="M 245 509.38 L 251 521.38 L 257 509.38" fill="none" stroke="#000000" stroke-miterlimit="10" pointer-events="none"/><g fill="#000000" font-family="Helvetica" text-anchor="middle" font-size="11px"><text x="278" y="425">&lt;&lt;Include&gt;&gt;</text></g><path d="M 357.5 442 L 282 442 Q 272 442 272 452 L 272 520.26" fill="none" stroke="#000000" stroke-miterlimit="10" stroke-dasharray="4" pointer-events="none"/><path d="M 266 509.38 L 272 521.38 L 278 509.38" fill="none" stroke="#000000" stroke-miterlimit="10" pointer-events="none"/><g fill="#000000" font-family="Helvetica" text-anchor="middle" font-size="11px"><text x="274" y="455">&lt;&lt;Include&gt;&gt;</text></g><path d="M 411 482.5 L 411 477.25 Q 411 472 401 472 L 308 472 Q 298 472 298 482 L 298 520.26" fill="none" stroke="#000000" stroke-miterlimit="10" stroke-dasharray="4" pointer-events="none"/><path d="M 292 509.38 L 298 521.38 L 304 509.38" fill="none" stroke="#000000" stroke-miterlimit="10" pointer-events="none"/><g fill="#000000" font-family="Helvetica" text-anchor="middle" font-size="11px"><text x="334" y="485">&lt;&lt;Include&gt;&gt;</text></g><path d="M 414 573 L 414 575.5 Q 414 578 404 578 L 323 578 Q 313 578 313 571.37 L 313 564.74" fill="none" stroke="#000000" stroke-miterlimit="10" stroke-dasharray="4" pointer-events="none"/><path d="M 319 575.62 L 313 563.62 L 307 575.62" fill="none" stroke="#000000" stroke-miterlimit="10" pointer-events="none"/><g fill="#000000" font-family="Helvetica" text-anchor="middle" font-size="11px"><text x="357.5" y="591">&lt;&lt;Include&gt;&gt;</text></g><path d="M 366.5 630 L 291 630 Q 281 630 281 620 L 281 564.74" fill="none" stroke="#000000" stroke-miterlimit="10" stroke-dasharray="4" pointer-events="none"/><path d="M 287 575.62 L 281 563.62 L 275 575.62" fill="none" stroke="#000000" stroke-miterlimit="10" pointer-events="none"/><g fill="#000000" font-family="Helvetica" text-anchor="middle" font-size="11px"><text x="289" y="643">&lt;&lt;Include&gt;&gt;</text></g><path d="M 30.5 301 L 104 301 Q 114 301 114 291 L 114 86 Q 114 76 124 76 L 311.5 76" fill="none" stroke="#000000" stroke-miterlimit="10" pointer-events="none"/><path d="M 30.5 300 L 42 300 Q 52 300 52 300.5 L 52 300.75 Q 52 301 62 301 L 149 301 Q 159 301 159 311 L 159 380 Q 159 390 169 390 L 373.5 390" fill="none" stroke="#000000" stroke-miterlimit="10" pointer-events="none"/><path d="M 30.5 301 L 192 301 Q 202 301 202 291 L 202 156 Q 202 146 212 146 L 311.5 146" fill="none" stroke="#000000" stroke-miterlimit="10" pointer-events="none"/><path d="M 30.5 301 L 99 301 Q 109 301 109 311 L 109 493 Q 109 503 119 503 L 357.5 503" fill="none" stroke="#000000" stroke-miterlimit="10" pointer-events="none"/><path d="M 686.5 462 L 630 462 Q 620 462 620 452 L 620 400 Q 620 390 610 390 L 453.5 390" fill="none" stroke="#000000" stroke-miterlimit="10" pointer-events="none"/><path d="M 686.5 462 L 631 462 Q 621 462 621 472 L 621 543 Q 621 553 611 553 L 476 553" fill="none" stroke="#000000" stroke-miterlimit="10" pointer-events="none"/><path d="M 686.5 462 L 653 462 Q 643 462 643 472 L 643 620 Q 643 630 633 630 L 460.5 630" fill="none" stroke="#000000" stroke-miterlimit="10" pointer-events="none"/><path d="M 686.5 196 L 572 196 Q 562 196 562 206 L 562 358 Q 562 368 552 368 L 432 368 Q 422 368 422 368.75 L 422 369.5" fill="none" stroke="#000000" stroke-miterlimit="10" pointer-events="none"/><path d="M 686.5 196 L 596 196 Q 586 196 586 206 L 586 432 Q 586 442 576 442 L 469.5 442" fill="none" stroke="#000000" stroke-miterlimit="10" pointer-events="none"/><path d="M 716.5 462 L 755 462 Q 765 462 765 452 L 765 156 Q 765 146 755 146 L 391.5 146" fill="none" stroke="#000000" stroke-miterlimit="10" pointer-events="none"/><path d="M 30.5 301 L 104 301 Q 114 301 114 291 L 114 86 Q 114 76 124 76 L 311.5 76" fill="none" stroke="#000000" stroke-miterlimit="10" pointer-events="none"/><path d="M 30.5 300 L 42 300 Q 52 300 52 300.5 L 52 300.75 Q 52 301 62 301 L 149 301 Q 159 301 159 311 L 159 380 Q 159 390 169 390 L 373.5 390" fill="none" stroke="#000000" stroke-miterlimit="10" pointer-events="none"/><path d="M 30.5 301 L 192 301 Q 202 301 202 291 L 202 156 Q 202 146 212 146 L 311.5 146" fill="none" stroke="#000000" stroke-miterlimit="10" pointer-events="none"/><path d="M 30.5 301 L 99 301 Q 109 301 109 311 L 109 493 Q 109 503 119 503 L 357.5 503" fill="none" stroke="#000000" stroke-miterlimit="10" pointer-events="none"/><path d="M 30.5 301 L 104 301 Q 114 301 114 291 L 114 86 Q 114 76 124 76 L 311.5 76" fill="none" stroke="#000000" stroke-miterlimit="10" pointer-events="none"/><path d="M 351.5 165.5 L 351.5 226.26" fill="none" stroke="#000000" stroke-miterlimit="10" stroke-dasharray="4" pointer-events="none"/><path d="M 345.5 215.38 L 351.5 227.38 L 357.5 215.38" fill="none" stroke="#000000" stroke-miterlimit="10" pointer-events="none"/><g fill="#000000" font-family="Helvetica" text-anchor="middle" font-size="11px"><text x="361" y="200.5">&lt;&lt;Include&gt;&gt;</text></g><path d="M 30.5 301 L 192 301 Q 202 301 202 291 L 202 156 Q 202 146 212 146 L 311.5 146" fill="none" stroke="#000000" stroke-miterlimit="10" pointer-events="none"/><path d="M 716.5 462 L 755 462 Q 765 462 765 452 L 765 156 Q 765 146 755 146 L 391.5 146" fill="none" stroke="#000000" stroke-miterlimit="10" pointer-events="none"/><path d="M 351.5 165.5 L 351.5 226.26" fill="none" stroke="#000000" stroke-miterlimit="10" stroke-dasharray="4" pointer-events="none"/><path d="M 345.5 215.38 L 351.5 227.38 L 357.5 215.38" fill="none" stroke="#000000" stroke-miterlimit="10" pointer-events="none"/><g fill="#000000" font-family="Helvetica" text-anchor="middle" font-size="11px"><text x="361" y="200.5">&lt;&lt;Include&gt;&gt;</text></g><path d="M 686.5 196 L 572 196 Q 562 196 562 206 L 562 358 Q 562 368 552 368 L 432 368 Q 422 368 422 368.75 L 422 369.5" fill="none" stroke="#000000" stroke-miterlimit="10" pointer-events="none"/><path d="M 686.5 196 L 596 196 Q 586 196 586 206 L 586 432 Q 586 442 576 442 L 469.5 442" fill="none" stroke="#000000" stroke-miterlimit="10" pointer-events="none"/><path d="M 686.5 462 L 630 462 Q 620 462 620 452 L 620 400 Q 620 390 610 390 L 453.5 390" fill="none" stroke="#000000" stroke-miterlimit="10" pointer-events="none"/><path d="M 686.5 462 L 631 462 Q 621 462 621 472 L 621 543 Q 621 553 611 553 L 476 553" fill="none" stroke="#000000" stroke-miterlimit="10" pointer-events="none"/><path d="M 686.5 462 L 653 462 Q 643 462 643 472 L 643 620 Q 643 630 633 630 L 460.5 630" fill="none" stroke="#000000" stroke-miterlimit="10" pointer-events="none"/><path d="M 716.5 462 L 755 462 Q 765 462 765 452 L 765 156 Q 765 146 755 146 L 391.5 146" fill="none" stroke="#000000" stroke-miterlimit="10" pointer-events="none"/><path d="M 30.5 300 L 42 300 Q 52 300 52 300.5 L 52 300.75 Q 52 301 62 301 L 149 301 Q 159 301 159 311 L 159 380 Q 159 390 169 390 L 373.5 390" fill="none" stroke="#000000" stroke-miterlimit="10" pointer-events="none"/><path d="M 686.5 462 L 630 462 Q 620 462 620 452 L 620 400 Q 620 390 610 390 L 453.5 390" fill="none" stroke="#000000" stroke-miterlimit="10" pointer-events="none"/><path d="M 686.5 196 L 572 196 Q 562 196 562 206 L 562 358 Q 562 368 552 368 L 432 368 Q 422 368 422 368.75 L 422 369.5" fill="none" stroke="#000000" stroke-miterlimit="10" pointer-events="none"/><path d="M 414 409.5 L 414 410.75 Q 414 412 404 412 L 261 412 Q 251 412 251 422 L 251 520.26" fill="none" stroke="#000000" stroke-miterlimit="10" stroke-dasharray="4" pointer-events="none"/><path d="M 245 509.38 L 251 521.38 L 257 509.38" fill="none" stroke="#000000" stroke-miterlimit="10" pointer-events="none"/><g fill="#000000" font-family="Helvetica" text-anchor="middle" font-size="11px"><text x="278" y="425">&lt;&lt;Include&gt;&gt;</text></g><path d="M 686.5 196 L 596 196 Q 586 196 586 206 L 586 432 Q 586 442 576 442 L 469.5 442" fill="none" stroke="#000000" stroke-miterlimit="10" pointer-events="none"/><path d="M 357.5 442 L 282 442 Q 272 442 272 452 L 272 520.26" fill="none" stroke="#000000" stroke-miterlimit="10" stroke-dasharray="4" pointer-events="none"/><path d="M 266 509.38 L 272 521.38 L 278 509.38" fill="none" stroke="#000000" stroke-miterlimit="10" pointer-events="none"/><g fill="#000000" font-family="Helvetica" text-anchor="middle" font-size="11px"><text x="274" y="455">&lt;&lt;Include&gt;&gt;</text></g><path d="M 30.5 301 L 99 301 Q 109 301 109 311 L 109 493 Q 109 503 119 503 L 357.5 503" fill="none" stroke="#000000" stroke-miterlimit="10" pointer-events="none"/><path d="M 411 482.5 L 411 477.25 Q 411 472 401 472 L 308 472 Q 298 472 298 482 L 298 520.26" fill="none" stroke="#000000" stroke-miterlimit="10" stroke-dasharray="4" pointer-events="none"/><path d="M 292 509.38 L 298 521.38 L 304 509.38" fill="none" stroke="#000000" stroke-miterlimit="10" pointer-events="none"/><g fill="#000000" font-family="Helvetica" text-anchor="middle" font-size="11px"><text x="334" y="485">&lt;&lt;Include&gt;&gt;</text></g><path d="M 686.5 462 L 631 462 Q 621 462 621 472 L 621 543 Q 621 553 611 553 L 476 553" fill="none" stroke="#000000" stroke-miterlimit="10" pointer-events="none"/><path d="M 414 573 L 414 575.5 Q 414 578 404 578 L 323 578 Q 313 578 313 571.37 L 313 564.74" fill="none" stroke="#000000" stroke-miterlimit="10" stroke-dasharray="4" pointer-events="none"/><path d="M 319 575.62 L 313 563.62 L 307 575.62" fill="none" stroke="#000000" stroke-miterlimit="10" pointer-events="none"/><g fill="#000000" font-family="Helvetica" text-anchor="middle" font-size="11px"><text x="357.5" y="591">&lt;&lt;Include&gt;&gt;</text></g><path d="M 686.5 462 L 653 462 Q 643 462 643 472 L 643 620 Q 643 630 633 630 L 460.5 630" fill="none" stroke="#000000" stroke-miterlimit="10" pointer-events="none"/><path d="M 366.5 630 L 291 630 Q 281 630 281 620 L 281 564.74" fill="none" stroke="#000000" stroke-miterlimit="10" stroke-dasharray="4" pointer-events="none"/><path d="M 287 575.62 L 281 563.62 L 275 575.62" fill="none" stroke="#000000" stroke-miterlimit="10" pointer-events="none"/><g fill="#000000" font-family="Helvetica" text-anchor="middle" font-size="11px"><text x="289" y="643">&lt;&lt;Include&gt;&gt;</text></g><path d="M 414 409.5 L 414 410.75 Q 414 412 404 412 L 261 412 Q 251 412 251 422 L 251 520.26" fill="none" stroke="#000000" stroke-miterlimit="10" stroke-dasharray="4" pointer-events="none"/><path d="M 245 509.38 L 251 521.38 L 257 509.38" fill="none" stroke="#000000" stroke-miterlimit="10" pointer-events="none"/><g fill="#000000" font-family="Helvetica" text-anchor="middle" font-size="11px"><text x="278" y="425">&lt;&lt;Include&gt;&gt;</text></g><path d="M 357.5 442 L 282 442 Q 272 442 272 452 L 272 520.26" fill="none" stroke="#000000" stroke-miterlimit="10" stroke-dasharray="4" pointer-events="none"/><path d="M 266 509.38 L 272 521.38 L 278 509.38" fill="none" stroke="#000000" stroke-miterlimit="10" pointer-events="none"/><g fill="#000000" font-family="Helvetica" text-anchor="middle" font-size="11px"><text x="274" y="455">&lt;&lt;Include&gt;&gt;</text></g><path d="M 411 482.5 L 411 477.25 Q 411 472 401 472 L 308 472 Q 298 472 298 482 L 298 520.26" fill="none" stroke="#000000" stroke-miterlimit="10" stroke-dasharray="4" pointer-events="none"/><path d="M 292 509.38 L 298 521.38 L 304 509.38" fill="none" stroke="#000000" stroke-miterlimit="10" pointer-events="none"/><g fill="#000000" font-family="Helvetica" text-anchor="middle" font-size="11px"><text x="334" y="485">&lt;&lt;Include&gt;&gt;</text></g><path d="M 414 573 L 414 575.5 Q 414 578 404 578 L 323 578 Q 313 578 313 571.37 L 313 564.74" fill="none" stroke="#000000" stroke-miterlimit="10" stroke-dasharray="4" pointer-events="none"/><path d="M 319 575.62 L 313 563.62 L 307 575.62" fill="none" stroke="#000000" stroke-miterlimit="10" pointer-events="none"/><g fill="#000000" font-family="Helvetica" text-anchor="middle" font-size="11px"><text x="357.5" y="591">&lt;&lt;Include&gt;&gt;</text></g><path d="M 366.5 630 L 291 630 Q 281 630 281 620 L 281 564.74" fill="none" stroke="#000000" stroke-miterlimit="10" stroke-dasharray="4" pointer-events="none"/><path d="M 287 575.62 L 281 563.62 L 275 575.62" fill="none" stroke="#000000" stroke-miterlimit="10" pointer-events="none"/><g fill="#000000" font-family="Helvetica" text-anchor="middle" font-size="11px"><text x="289" y="643">&lt;&lt;Include&gt;&gt;</text></g></g></svg>